<?xml version="1.0" encoding="UTF-8" standalone="no"?>
<!DOCTYPE svg PUBLIC "-//W3C//DTD SVG 1.1//EN" "http://www.w3.org/Graphics/SVG/1.1/DTD/svg11.dtd">
<svg width="100%" height="100%" viewBox="0 0 800 800" version="1.1" xmlns="http://www.w3.org/2000/svg" xmlns:xlink="http://www.w3.org/1999/xlink" xml:space="preserve" xmlns:serif="http://www.serif.com/" style="fill-rule:evenodd;clip-rule:evenodd;stroke-linejoin:round;stroke-miterlimit:2;">
    <g id="twitter---4E1F91-" serif:id="twitter-[#4E1F91]" transform="matrix(-0.966692,-0.255942,-0.255942,0.966692,76372,-284476)">
        <path d="M411.6,295160C713.48,295160 878.6,294914 878.6,294700C878.6,294693 878.6,294686 878.12,294679C910.24,294656 937.96,294628 960,294596C930.08,294609 898.28,294617 865.76,294621C900,294601 925.64,294569 937.92,294532C905.68,294551 870.44,294564 833.68,294571C771.52,294506 667.56,294503 601.44,294564C558.84,294603 540.72,294662 553.96,294718C422,294712 299.04,294650 215.68,294550C172.12,294623 194.4,294718 266.52,294765C240.4,294764 214.84,294758 192,294745L192,294747C192.04,294824 247.12,294890 323.68,294905C299.52,294912 274.16,294913 249.6,294908C271.08,294974 332.72,295019 402.92,295020C344.8,295065 273,295090 199.08,295090C186.04,295090 173,295089 160,295087C235.08,295135 322.4,295160 411.6,295160" style="fill:rgb(78,31,145);"/>
    </g>
</svg>
